<svg width="104" height="104" viewBox="0 0 104 104" fill="none" xmlns="http://www.w3.org/2000/svg">
<g clip-path="url(#clip0)">
<path d="M77.1313 42.9414C77.1313 42.9414 77.7426 32.5918 77.7426 27.3257C77.7426 22.0595 75.5944 17.7034 72.4069 16.0448C72.4069 16.0448 80.7987 7.84138 74.9521 2.36479C70.3709 -1.92663 64.5437 6.07568 65.2228 10.2563C61.5993 8.15099 57.26 7.57426 57.5809 14.2096C57.5809 14.2096 39.0127 12.4615 39.0127 35.222C39.0127 57.9826 39.3695 60.0033 39.3695 60.0033" stroke="#FAD349" stroke-width="2.81077" stroke-miterlimit="1.5" stroke-linecap="round" stroke-linejoin="round"/>
<path d="M33.9972 63.7322C33.6231 53.2252 30.6291 49.1069 28.7412 46.8059C26.0037 43.4693 18.759 45.3793 22.2925 52.3386C25.826 59.298 25.9384 61.1385 25.9384 61.1385" stroke="#FAD349" stroke-width="2.81077" stroke-miterlimit="1.5" stroke-linecap="round" stroke-linejoin="round"/>
<path d="M33.998 60.9355L42.0876 60.0044" stroke="#FAD349" stroke-width="2.81077" stroke-miterlimit="1.5" stroke-linecap="round" stroke-linejoin="round"/>
<path d="M77.0637 43.2022C77.0637 43.2022 80.413 45.5878 83.2858 47.469C86.1586 49.3503 75.6817 50.726 72.5029 50.9987" stroke="#FAD349" stroke-width="2.81077" stroke-miterlimit="1.5" stroke-linecap="round" stroke-linejoin="round"/>
<path d="M76.7081 50.5274C76.7081 50.5274 76.561 56.0124 76.3226 60.6994C76.0349 66.3557 74.7692 75.1256 64.5676 75.7929C54.3661 76.46 40.9046 76.764 35.7743 76.3877C30.644 76.0115 27.4041 75.6441 26.7236 69.5388" stroke="#FAD349" stroke-width="2.81077" stroke-miterlimit="1.5" stroke-linecap="round" stroke-linejoin="round"/>
<path fill-rule="evenodd" clip-rule="evenodd" d="M72.5029 50.9943L76.7129 52.3374V50.5274L72.5029 50.9943Z" fill="black" stroke="#FAD349" stroke-width="2.81077" stroke-miterlimit="1.5" stroke-linecap="round" stroke-linejoin="round"/>
<path d="M55.8323 56.3164C56.5564 59.8211 59.3714 66.2834 54.3329 67.3525C49.2944 68.4217 45.9769 68.6811 42.4853 69.1146C38.9937 69.5481 37.8979 64.7988 41.2524 64.2236C44.6067 63.6485 45.1718 63.543 45.1718 63.543" stroke="#FAD349" stroke-width="2.81077" stroke-miterlimit="1.5" stroke-linecap="round" stroke-linejoin="round"/>
<path d="M72.5029 33.7886V38.877" stroke="#FAD349" stroke-width="2.81077" stroke-miterlimit="1.5" stroke-linecap="round" stroke-linejoin="round"/>
<path d="M44.4209 76.5527V97.1819" stroke="#FAD349" stroke-width="2.81077" stroke-miterlimit="1.5" stroke-linecap="round" stroke-linejoin="round"/>
<path d="M54.666 76.6733V90.7424" stroke="#FAD349" stroke-width="2.81077" stroke-miterlimit="1.5" stroke-linecap="round" stroke-linejoin="round"/>
<path d="M44.4209 97.1826L51.1881 102.642" stroke="#FAD349" stroke-width="2.81077" stroke-miterlimit="1.5" stroke-linecap="round" stroke-linejoin="round"/>
<path d="M54.666 90.7397L61.3154 95.541" stroke="#FAD349" stroke-width="2.81077" stroke-miterlimit="1.5" stroke-linecap="round" stroke-linejoin="round"/>
<path d="M35.3818 97.1826H52.7097" stroke="#FAD349" stroke-width="2.81077" stroke-miterlimit="1.5" stroke-linecap="round" stroke-linejoin="round"/>
<path d="M47.8105 90.7397H61.3242" stroke="#FAD349" stroke-width="2.81077" stroke-miterlimit="1.5" stroke-linecap="round" stroke-linejoin="round"/>
<path d="M25.4162 59.5189C21.6519 56.129 18.3 60.2902 21.3464 62.9455C22.9359 64.331 24.7283 65.2225 24.7283 65.2225" stroke="#FAD349" stroke-width="2.81077" stroke-miterlimit="1.5" stroke-linecap="round" stroke-linejoin="round"/>
<path d="M23.4284 64.4985C18.2464 66.0266 22.8364 68.829 28.3623 69.5762" stroke="#FAD349" stroke-width="2.81077" stroke-miterlimit="1.5" stroke-linecap="round" stroke-linejoin="round"/>
</g>
<defs>
<clipPath id="clip0">
<rect width="104" height="104" fill="white"/>
</clipPath>
</defs>
</svg>
