<svg width="40" height="40" viewBox="0 0 40 40" fill="none" xmlns="http://www.w3.org/2000/svg">
<path d="M34.3552 20.753L34.3555 20.7527C37.5581 17.4882 38.2852 11.1943 33.7086 7.33419L33.7079 7.33358C30.1646 4.34882 24.8154 4.85449 21.5131 8.21791L21.5124 8.2187L20.0001 9.76121L18.4878 8.2187L18.4871 8.21796C15.2 4.86967 9.85165 4.34895 6.29351 7.33999L6.29271 7.34067C1.70849 11.1996 2.41851 17.4646 5.64482 20.7528L5.64501 20.753L18.663 34.0159L18.6679 34.021L18.6729 34.026C18.8787 34.2318 19.3273 34.6048 20.0001 34.6048C20.6729 34.6048 21.1215 34.2318 21.3272 34.026L21.3323 34.021L21.3372 34.0159L34.3552 20.753Z" stroke="#FAD349" stroke-width="3.04"/>
</svg>
