<svg width="40" height="40" viewBox="0 0 40 40" fill="none" xmlns="http://www.w3.org/2000/svg">
<path d="M29.9905 26.7897C29.9905 26.7897 30.3592 20.5475 30.3592 17.3713C30.3592 14.1951 29.0636 11.5678 27.1411 10.5675C27.1411 10.5675 32.2025 5.61972 28.6762 2.31662C25.9131 -0.271672 22.3985 4.55478 22.8081 7.07622C20.6227 5.80646 18.0055 5.45861 18.199 9.46059C18.199 9.46059 7 8.40627 7 22.1339C7 35.8614 7.21519 37.0802 7.21519 37.0802" stroke="#FAD349" stroke-width="2.42865" stroke-miterlimit="1.5" stroke-linecap="round" stroke-linejoin="round"/>
<path d="M29.9495 26.9469C29.9495 26.9469 31.9696 28.3857 33.7022 29.5203C35.4349 30.655 29.116 31.4847 27.1987 31.6492" stroke="#FAD349" stroke-width="2.42865" stroke-miterlimit="1.5" stroke-linecap="round" stroke-linejoin="round"/>
<path d="M29.7353 31.3649C29.7353 31.3649 29.5958 35.1731 29.4521 38C29.1757 38 14.3307 38 7.1145 38" stroke="#FAD349" stroke-width="2.42865" stroke-miterlimit="1.5" stroke-linecap="round" stroke-linejoin="round"/>
<path fill-rule="evenodd" clip-rule="evenodd" d="M27.1987 31.6465L29.7379 32.4566V31.3649L27.1987 31.6465Z" fill="black" stroke="#FAD349" stroke-width="2.42865" stroke-miterlimit="1.5" stroke-linecap="round" stroke-linejoin="round"/>
<path d="M24.0391 20.9648V24.0338" stroke="#FAD349" stroke-width="2.42865" stroke-miterlimit="1.5" stroke-linecap="round" stroke-linejoin="round"/>
</svg>
